<?xml version="1.0" encoding="UTF-8" standalone="no"?>
<svg
   xmlns="http://www.w3.org/2000/svg"
   viewBox="0 0 24 24"
   height="24"
   width="24">
  <g
     id="g882">
    <g
       id="g887">
      <g
         id="g1070">
        <path
           id="path877"
           d="m 11.472656,16.195312 c -1.236981,10e-7 -2.2519531,1.014973 -2.2519529,2.251954 -2e-7,1.23698 1.0149719,2.251952 2.2519529,2.251953 1.236982,0 2.251954,-1.014972 2.251953,-2.251953 1e-6,-1.236982 -1.014971,-2.251954 -2.251953,-2.251954 z"
            />
        <path
           id="rect879"
           d="m 11.251953,9.4257812 a 0.56698585,0.56698585 0 0 0 -0.566406,0.5664063 v 7.0332035 a 0.56698585,0.56698585 0 0 0 0.566406,0.566406 h 0.527344 a 0.56698585,0.56698585 0 0 0 0.568359,-0.566406 V 9.9921875 A 0.56698585,0.56698585 0 0 0 11.779297,9.4257812 Z"
            />
      </g>
    </g>
  </g>
  <g
     id="g916">
    <path
       id="path863"
       d="M 11.5,0 C 10.652778,0 9.7921194,0.27701391 9.1171875,0.87695312 8.4422556,1.4768923 8,2.4166669 8,3.5 v 10.847656 c -1.7972013,1.510513 -2.3553384,3.800404 -1.7636719,5.75 0.6440764,2.122292 2.6069173,3.904297 5.2636719,3.904297 2.656755,0 4.619596,-1.782005 5.263672,-3.904297 0.591666,-1.949596 0.03353,-4.239487 -1.763672,-5.75 V 3.5 C 15,2.4166669 14.557744,1.4768923 13.882812,0.87695312 13.207881,0.27701391 12.347222,0 11.5,0 Z m 0,2 c 0.402778,0 0.792119,0.1396531 1.054688,0.3730469 C 12.817256,2.6064406 13,2.9166671 13,3.5 v 11.259766 a 1.0001,1.0001 0 0 0 0.445312,0.832031 c 1.491124,0.996298 1.823125,2.545706 1.404297,3.925781 -0.418827,1.380075 -1.557194,2.484375 -3.349609,2.484375 -1.7924152,0 -2.9307821,-1.1043 -3.3496094,-2.484375 -0.4188272,-1.380075 -0.086826,-2.929483 1.4042969,-3.925781 A 1.0001,1.0001 0 0 0 10,14.759766 V 3.5 C 10,2.9166671 10.182744,2.6064406 10.445312,2.3730469 10.707881,2.1396531 11.097222,2 11.5,2 Z"
        />
    <path
       id="rect889"
       d="m 11.974609,4.53125 v 0.2910156 0.4628906 h 1.691407 V 4.53125 Z"
        />
    <path
       id="rect889-7"
       d="m 11.990234,5.953125 v 0.2910156 0.4628906 h 1.689454 V 5.953125 Z"
        />
    <path
       id="rect889-9"
       d="M 11.990234,7.4179688 V 7.7089844 8.171875 h 1.689454 V 7.4179688 Z"
        />
  </g>
  <path
     id="rect918"
     d="m 18.693359,5.9726562 c -0.180137,-0.00151 -0.351184,0.078988 -0.464843,0.21875 l -1.896485,2.3339844 c -0.315354,0.3877194 -0.03884,0.9677042 0.460938,0.9667969 h 3.71289 C 20.99894,9.4914898 21.275663,8.9241502 20.972656,8.5351562 L 19.15625,6.2011719 C 19.044965,6.0582853 18.874464,5.9741138 18.693359,5.9726562 Z"
      />
  <path
     id="rect918-5"
     d="m 16.832031,10.728516 c -0.499772,-9.06e-4 -0.776289,0.579077 -0.460937,0.966796 l 1.896484,2.332032 c 0.240428,0.294168 0.691635,0.289392 0.925781,-0.0098 l 1.81836,-2.332031 c 0.303007,-0.388994 0.02628,-0.956333 -0.466797,-0.957031 z"
      />
</svg>
